<svg width="2656" height="255" viewBox="0 0 2656 255" fill="none" xmlns="http://www.w3.org/2000/svg">
<path d="M-0.000780869 241.849H10.1492C16.9159 241.849 21.9326 240.916 25.1992 239.049C28.6992 236.949 30.4492 233.683 30.4492 229.249V27.9992C30.4492 23.5659 28.6992 20.4159 25.1992 18.5492C21.9326 16.4492 16.9159 15.3992 10.1492 15.3992H-0.000780869V5.9492H107.449C132.183 5.9492 150.849 10.9659 163.449 20.9992C176.049 30.7992 182.349 45.1492 182.349 64.0492C182.349 77.5825 178.383 89.5992 170.449 100.099C162.749 110.599 151.783 117.716 137.549 121.449V122.499C159.483 125.766 174.766 133.233 183.399 144.899C192.266 156.333 196.699 169.633 196.699 184.799C196.699 206.033 190.049 222.366 176.749 233.799C163.449 245.233 143.966 250.949 118.299 250.949H-0.000780869V241.849ZM99.3992 115.849C114.333 115.849 126.233 111.183 135.099 101.849C143.966 92.5159 148.399 80.2659 148.399 65.0992C148.399 49.6992 143.966 38.3825 135.099 31.1492C126.466 23.9159 113.283 20.2992 95.5492 20.2992H64.7492V115.849H99.3992ZM103.949 236.949C123.783 236.949 138.599 232.399 148.399 223.299C158.433 214.199 163.449 200.899 163.449 183.399C163.449 165.199 158.199 151.783 147.699 143.149C137.433 134.283 121.333 129.849 99.3992 129.849H64.7492V236.949H103.949ZM250.38 160.649C250.147 162.516 250.03 165.316 250.03 169.049C250.03 190.983 255.164 208.599 265.43 221.899C275.93 235.199 289.697 241.849 306.73 241.849C322.13 241.849 334.847 237.883 344.88 229.949C354.914 221.783 361.447 209.299 364.48 192.499H374.63C372.764 211.166 365.764 226.216 353.63 237.649C341.497 248.849 324.464 254.449 302.53 254.449C275.464 254.449 254.347 247.099 239.18 232.399C224.247 217.466 216.78 196.233 216.78 168.699C216.78 142.099 224.247 121.216 239.18 106.049C254.347 90.6492 275.114 82.9492 301.48 82.9492C325.747 82.9492 344.18 89.4825 356.78 102.549C369.614 115.383 376.03 132.066 376.03 152.599V160.649H250.38ZM302.53 96.2492C288.764 96.2492 277.564 100.799 268.93 109.899C260.297 118.999 254.58 131.366 251.78 146.999H346.98C346.514 133.933 342.664 122.266 335.43 111.999C328.43 101.499 317.464 96.2492 302.53 96.2492ZM398.316 242.199H404.616C410.449 242.199 414.999 241.266 418.266 239.399C421.766 237.533 423.516 234.733 423.516 230.999V28.3492C423.516 23.4492 421.066 20.9992 416.166 20.9992C414.066 20.9992 410.682 21.9325 406.016 23.7992L403.566 15.7492L447.666 -0.00078392H456.416V230.999C456.416 234.733 458.049 237.533 461.316 239.399C464.816 241.266 469.366 242.199 474.966 242.199H480.916V250.949H398.316V242.199ZM798.631 242.199V250.949H716.031V242.199H722.331C727.931 242.199 732.481 241.266 735.981 239.399C739.481 237.533 741.231 234.733 741.231 230.999V134.749C741.231 122.383 738.314 113.049 732.481 106.749C726.648 100.449 718.948 97.2992 709.381 97.2992C696.781 97.2992 686.281 101.966 677.881 111.299C669.481 120.633 665.281 133.933 665.281 151.199V230.999C665.281 234.733 667.031 237.533 670.531 239.399C674.031 241.266 678.581 242.199 684.181 242.199H687.331V250.949H611.031V242.199H614.881C620.714 242.199 625.264 241.266 628.531 239.399C632.031 237.533 633.781 234.733 633.781 230.999V134.749C633.781 122.383 630.864 113.049 625.031 106.749C619.431 100.449 611.731 97.2992 601.931 97.2992C589.331 97.2992 578.831 101.966 570.431 111.299C562.264 120.633 558.181 133.933 558.181 151.199V230.999C558.181 234.733 559.931 237.533 563.431 239.399C566.931 241.266 571.481 242.199 577.081 242.199H583.031V250.949H500.081V242.199H506.731C512.331 242.199 516.764 241.266 520.031 239.399C523.531 237.533 525.281 234.733 525.281 230.999V113.399C525.281 108.499 522.948 106.049 518.281 106.049C515.948 106.049 512.448 106.983 507.781 108.849L505.681 101.149L549.431 85.3992H558.181V111.999C562.614 103.833 569.498 96.9492 578.831 91.3492C588.164 85.7492 599.014 82.9492 611.381 82.9492C625.848 82.9492 637.398 85.8659 646.031 91.6992C654.898 97.5325 660.731 105.466 663.531 115.499C667.264 106.866 674.031 99.2825 683.831 92.7492C693.864 86.2159 705.531 82.9492 718.831 82.9492C736.798 82.9492 750.448 87.2659 759.781 95.8992C769.348 104.533 774.131 116.083 774.131 130.549V230.999C774.131 234.733 775.764 237.533 779.031 239.399C782.531 241.266 787.081 242.199 792.681 242.199H798.631ZM862.142 254.449C847.909 254.449 836.709 251.183 828.542 244.649C820.609 237.883 816.642 228.783 816.642 217.349C816.642 200.316 825.509 186.316 843.242 175.349C861.209 164.383 888.742 156.333 925.842 151.199V132.999C925.842 121.099 922.109 112.116 914.642 106.049C907.176 99.9825 897.259 96.9492 884.892 96.9492C876.026 96.9492 867.859 98.6992 860.392 102.199C852.926 105.699 849.192 109.433 849.192 113.399C849.192 114.799 849.426 116.549 849.892 118.649C850.359 120.749 850.592 122.383 850.592 123.549C850.592 127.049 849.542 130.083 847.442 132.649C845.342 135.216 841.959 136.499 837.292 136.499C833.326 136.499 829.942 135.099 827.142 132.299C824.576 129.266 823.292 125.066 823.292 119.699C823.292 108.033 829.942 99.0492 843.242 92.7492C856.542 86.2159 872.759 82.9492 891.892 82.9492C913.359 82.9492 929.926 87.7325 941.592 97.2992C953.259 106.633 959.092 119.466 959.092 135.799V230.649C959.092 238.116 961.659 241.849 966.792 241.849C970.059 241.849 974.259 240.916 979.392 239.049V244.999C975.892 248.033 971.459 250.366 966.092 251.999C960.726 253.633 955.242 254.449 949.642 254.449C943.342 254.449 937.859 253.166 933.192 250.599C928.526 248.033 926.192 243.833 926.192 237.999V227.499C916.859 237.766 906.476 244.883 895.042 248.849C883.842 252.583 872.876 254.449 862.142 254.449ZM878.242 240.449C886.876 240.449 895.859 237.649 905.192 232.049C914.759 226.449 921.642 220.033 925.842 212.799V162.749C901.109 167.649 882.092 174.766 868.792 184.099C855.726 193.199 849.192 203.466 849.192 214.899C849.192 223.299 851.759 229.716 856.892 234.149C862.026 238.349 869.142 240.449 878.242 240.449ZM1313.53 241.849V250.949H1257.53L1146.58 137.549H1146.23V229.249C1146.23 237.649 1152.99 241.849 1166.53 241.849H1177.03V250.949H1081.48V241.849H1091.63C1098.39 241.849 1103.41 240.916 1106.68 239.049C1110.18 236.949 1111.93 233.683 1111.93 229.249V27.9992C1111.93 23.5659 1110.18 20.4159 1106.68 18.5492C1103.41 16.4492 1098.39 15.3992 1091.63 15.3992H1081.48V5.9492H1177.03V15.3992H1166.53C1152.99 15.3992 1146.23 19.5992 1146.23 27.9992V115.849L1247.38 26.9492C1249.01 25.3159 1249.83 23.6825 1249.83 22.0492C1249.83 17.6159 1245.39 15.3992 1236.53 15.3992H1231.28V5.9492H1301.28V15.3992H1294.28C1289.84 15.3992 1285.99 16.2159 1282.73 17.8492C1279.69 19.2492 1276.78 21.2325 1273.98 23.7992L1168.98 117.599L1274.68 225.749C1280.04 231.116 1284.71 235.199 1288.68 237.999C1292.88 240.566 1297.78 241.849 1303.38 241.849H1313.53ZM1397.04 254.449C1368.8 254.449 1346.87 246.983 1331.24 232.049C1315.84 217.116 1308.14 195.999 1308.14 168.699C1308.14 141.399 1315.95 120.283 1331.59 105.349C1347.22 90.4159 1369.04 82.9492 1397.04 82.9492C1425.04 82.9492 1446.74 90.4159 1462.14 105.349C1477.77 120.283 1485.59 141.399 1485.59 168.699C1485.59 195.999 1477.77 217.116 1462.14 232.049C1446.74 246.983 1425.04 254.449 1397.04 254.449ZM1397.04 241.149C1414.3 241.149 1427.95 234.849 1437.99 222.249C1448.02 209.649 1453.04 191.799 1453.04 168.699C1453.04 145.833 1448.02 128.216 1437.99 115.849C1427.95 103.249 1414.3 96.9492 1397.04 96.9492C1379.54 96.9492 1365.77 103.249 1355.74 115.849C1345.7 128.216 1340.69 145.833 1340.69 168.699C1340.69 191.799 1345.7 209.649 1355.74 222.249C1365.77 234.849 1379.54 241.149 1397.04 241.149ZM1525.3 111.999C1522.97 105.466 1520.4 101.149 1517.6 99.0492C1515.04 96.7159 1511.07 95.5492 1505.7 95.5492H1500.1V86.4492H1573.6V95.5492H1568C1558.9 95.5492 1554.35 97.8825 1554.35 102.549C1554.35 103.016 1554.59 104.183 1555.05 106.049L1596 222.249L1636.95 107.099C1637.42 105.233 1637.65 104.066 1637.65 103.599C1637.65 98.2325 1632.87 95.5492 1623.3 95.5492H1618.05V86.4492H1681.4V95.5492H1673.35C1665.19 95.5492 1659.94 98.6992 1657.6 104.999L1603.7 250.949H1577.1L1525.3 111.999ZM1727.91 254.449C1713.68 254.449 1702.48 251.183 1694.31 244.649C1686.38 237.883 1682.41 228.783 1682.41 217.349C1682.41 200.316 1691.28 186.316 1709.01 175.349C1726.98 164.383 1754.51 156.333 1791.61 151.199V132.999C1791.61 121.099 1787.88 112.116 1780.41 106.049C1772.95 99.9825 1763.03 96.9492 1750.66 96.9492C1741.8 96.9492 1733.63 98.6992 1726.16 102.199C1718.7 105.699 1714.96 109.433 1714.96 113.399C1714.96 114.799 1715.2 116.549 1715.66 118.649C1716.13 120.749 1716.36 122.383 1716.36 123.549C1716.36 127.049 1715.31 130.083 1713.21 132.649C1711.11 135.216 1707.73 136.499 1703.06 136.499C1699.1 136.499 1695.71 135.099 1692.91 132.299C1690.35 129.266 1689.06 125.066 1689.06 119.699C1689.06 108.033 1695.71 99.0492 1709.01 92.7492C1722.31 86.2159 1738.53 82.9492 1757.66 82.9492C1779.13 82.9492 1795.7 87.7325 1807.36 97.2992C1819.03 106.633 1824.86 119.466 1824.86 135.799V230.649C1824.86 238.116 1827.43 241.849 1832.56 241.849C1835.83 241.849 1840.03 240.916 1845.16 239.049V244.999C1841.66 248.033 1837.23 250.366 1831.86 251.999C1826.5 253.633 1821.01 254.449 1815.41 254.449C1809.11 254.449 1803.63 253.166 1798.96 250.599C1794.3 248.033 1791.96 243.833 1791.96 237.999V227.499C1782.63 237.766 1772.25 244.883 1760.81 248.849C1749.61 252.583 1738.65 254.449 1727.91 254.449ZM1744.01 240.449C1752.65 240.449 1761.63 237.649 1770.96 232.049C1780.53 226.449 1787.41 220.033 1791.61 212.799V162.749C1766.88 167.649 1747.86 174.766 1734.56 184.099C1721.5 193.199 1714.96 203.466 1714.96 214.899C1714.96 223.299 1717.53 229.716 1722.66 234.149C1727.8 238.349 1734.91 240.449 1744.01 240.449ZM1943.81 254.449C1916.98 254.449 1896.1 247.099 1881.16 232.399C1866.46 217.466 1859.11 196.233 1859.11 168.699C1859.11 142.099 1866.58 121.216 1881.51 106.049C1896.68 90.6492 1917.68 82.9492 1944.51 82.9492C1955.71 82.9492 1966.45 84.5825 1976.71 87.8492C1986.98 91.1159 1995.38 96.7159 2001.91 104.649L2005.41 82.9492H2014.16V141.049H2005.76C2003.43 126.116 1997.6 114.916 1988.26 107.449C1979.16 99.9825 1967.61 96.2492 1953.61 96.2492C1934.01 96.2492 1918.85 103.016 1908.11 116.549C1897.61 129.849 1892.36 147.349 1892.36 169.049C1892.36 190.983 1897.38 208.599 1907.41 221.899C1917.68 235.199 1931.21 241.849 1948.01 241.849C1963.41 241.849 1976.01 237.883 1985.81 229.949C1995.61 221.783 2001.91 209.299 2004.71 192.499H2015.21C2013.35 211.166 2006.46 226.216 1994.56 237.649C1982.66 248.849 1965.75 254.449 1943.81 254.449ZM2070.79 160.649C2070.56 162.516 2070.44 165.316 2070.44 169.049C2070.44 190.983 2075.57 208.599 2085.84 221.899C2096.34 235.199 2110.11 241.849 2127.14 241.849C2142.54 241.849 2155.26 237.883 2165.29 229.949C2175.32 221.783 2181.86 209.299 2184.89 192.499H2195.04C2193.17 211.166 2186.17 226.216 2174.04 237.649C2161.91 248.849 2144.87 254.449 2122.94 254.449C2095.87 254.449 2074.76 247.099 2059.59 232.399C2044.66 217.466 2037.19 196.233 2037.19 168.699C2037.19 142.099 2044.66 121.216 2059.59 106.049C2074.76 90.6492 2095.52 82.9492 2121.89 82.9492C2146.16 82.9492 2164.59 89.4825 2177.19 102.549C2190.02 115.383 2196.44 132.066 2196.44 152.599V160.649H2070.79ZM2122.94 96.2492C2109.17 96.2492 2097.97 100.799 2089.34 109.899C2080.71 118.999 2074.99 131.366 2072.19 146.999H2167.39C2166.92 133.933 2163.07 122.266 2155.84 111.999C2148.84 101.499 2137.87 96.2492 2122.94 96.2492ZM2226.33 111.999C2224 105.466 2221.43 101.149 2218.63 99.0492C2216.06 96.7159 2212.1 95.5492 2206.73 95.5492H2201.13V86.4492H2274.63V95.5492H2269.03C2259.93 95.5492 2255.38 97.8825 2255.38 102.549C2255.38 103.016 2255.61 104.183 2256.08 106.049L2297.03 222.249L2337.98 107.099C2338.45 105.233 2338.68 104.066 2338.68 103.599C2338.68 98.2325 2333.9 95.5492 2324.33 95.5492H2319.08V86.4492H2382.43V95.5492H2374.38C2366.21 95.5492 2360.96 98.6992 2358.63 104.999L2304.73 250.949H2278.13L2226.33 111.999ZM2435.6 54.5992C2429.54 54.5992 2424.64 52.8492 2420.9 49.3492C2417.4 45.6159 2415.65 40.9492 2415.65 35.3492C2415.65 29.5159 2417.4 24.8492 2420.9 21.3492C2424.64 17.8492 2429.54 16.0992 2435.6 16.0992C2441.44 16.0992 2446.1 17.8492 2449.6 21.3492C2453.34 24.8492 2455.2 29.5159 2455.2 35.3492C2455.2 40.9492 2453.34 45.6159 2449.6 49.3492C2446.1 52.8492 2441.44 54.5992 2435.6 54.5992ZM2396.75 242.199H2403.4C2409 242.199 2413.44 241.266 2416.7 239.399C2420.2 237.533 2421.95 234.733 2421.95 230.999V113.049C2421.95 107.916 2419.5 105.349 2414.6 105.349C2413.44 105.349 2411.69 105.816 2409.35 106.749C2407.02 107.449 2405.39 107.916 2404.45 108.149L2402 100.099L2446.1 84.6992H2454.85V230.999C2454.85 234.733 2456.49 237.533 2459.75 239.399C2463.25 241.266 2467.8 242.199 2473.4 242.199H2480.05V250.949H2396.75V242.199ZM2584.34 254.449C2557.51 254.449 2536.63 247.099 2521.69 232.399C2506.99 217.466 2499.64 196.233 2499.64 168.699C2499.64 142.099 2507.11 121.216 2522.04 106.049C2537.21 90.6492 2558.21 82.9492 2585.04 82.9492C2596.24 82.9492 2606.98 84.5825 2617.24 87.8492C2627.51 91.1159 2635.91 96.7159 2642.44 104.649L2645.94 82.9492H2654.69V141.049H2646.29C2643.96 126.116 2638.13 114.916 2628.79 107.449C2619.69 99.9825 2608.14 96.2492 2594.14 96.2492C2574.54 96.2492 2559.38 103.016 2548.64 116.549C2538.14 129.849 2532.89 147.349 2532.89 169.049C2532.89 190.983 2537.91 208.599 2547.94 221.899C2558.21 235.199 2571.74 241.849 2588.54 241.849C2603.94 241.849 2616.54 237.883 2626.34 229.949C2636.14 221.783 2642.44 209.299 2645.24 192.499H2655.74C2653.88 211.166 2646.99 226.216 2635.09 237.649C2623.19 248.849 2606.28 254.449 2584.34 254.449Z" fill="#161310"/>
</svg>
