<svg width="192" height="192" viewBox="0 0 192 192" fill="none" xmlns="http://www.w3.org/2000/svg">
<g clip-path="url(#clip0_702_30)">
<path d="M155.962 137.328H125.908L114.974 116.464C130.799 109.529 141.888 93.738 141.888 75.3849C141.888 51.6058 123.268 32.1446 99.8468 30.686V-0.00195312H94.2422V30.686C70.8218 32.1446 52.2025 51.6058 52.2025 75.3849C52.2025 93.4482 62.961 109.014 78.3851 116.111L67.269 137.329H36.0391V144.658H63.4329L40.3117 188.798L46.4206 191.999L71.2224 144.659H94.2458V165.355H99.8509V144.659H121.961L146.76 191.999L152.87 188.798L129.75 144.658H155.962V137.328H155.962ZM59.1078 75.3885C59.1078 54.4687 76.1301 37.4464 97.0498 37.4464C117.97 37.4464 134.99 54.4687 134.99 75.3885C134.99 91.0883 125.406 104.594 111.778 110.357L96.5915 81.3689L81.5904 110.003C68.3594 104.072 59.1078 90.799 59.1078 75.3885ZM105.085 112.456C102.492 113.015 99.805 113.332 97.0463 113.332C93.9978 113.332 91.0441 112.927 88.1988 112.247L96.588 96.2328L105.085 112.456ZM99.8504 137.328V129.999H94.2452V137.328H75.0603L84.9146 118.513C88.7784 119.604 92.8373 120.231 97.0463 120.231C100.964 120.231 104.745 119.671 108.373 118.725L118.117 137.328H99.8504Z" fill="#030303"/>
</g>
<defs>
<clipPath id="clip0_702_30">
<rect width="192" height="192" fill="white"/>
</clipPath>
</defs>
</svg>
